HIERARCHY
ROOT Hips
{
  OFFSET 0 0 0
  CHANNELS 6 Xposition Yposition Zposition Zrotation Yrotation Xrotation
  JOINT LeftThigh
  {
    OFFSET 8.409438 0 -5.917753
    CHANNELS 3 Zrotation Yrotation Xrotation
    JOINT LeftLeg
    {
      OFFSET 0 0 -42.358652
      CHANNELS 3 Zrotation Yrotation Xrotation
      JOINT LeftFoot
      {
        OFFSET 0 0 -39.357303
        CHANNELS 3 Zrotation Yrotation Xrotation
      }
    }
  }
  JOINT RightThigh
  {
    OFFSET -8.409438 0 -5.917753
    CHANNELS 3 Zrotation Yrotation Xrotation
    JOINT RightLeg
    {
      OFFSET 0 0 -42.358652
      CHANNELS 3 Zrotation Yrotation Xrotation
      JOINT RightFoot
      {
        OFFSET 0 0 -39.357303
        CHANNELS 3 Zrotation Yrotation Xrotation
      }
    }
  }
  JOINT SpineLow
  {
    OFFSET 0 0 4.719101
    CHANNELS 3 Zrotation Yrotation Xrotation
    JOINT SpineMid
    {
      OFFSET 0 0 12.899191
      CHANNELS 3 Zrotation Yrotation Xrotation
      JOINT Chest
      {
        OFFSET 0 0 12.899191
        CHANNELS 3 Zrotation Yrotation Xrotation
        JOINT LeftShoulder
        {
          OFFSET 7.550562 1.41573 9.438202
          CHANNELS 3 Zrotation Yrotation Xrotation
          JOINT LeftArm
          {
            OFFSET 9.155056 0 4.247191
            CHANNELS 3 Zrotation Yrotation Xrotation
            JOINT LeftForearm
            {
              OFFSET 0 0 25.771955
              CHANNELS 3 Zrotation Yrotation Xrotation
              JOINT LeftHand
              {
                OFFSET 0 0 25.197169
                CHANNELS 3 Zrotation Yrotation Xrotation
              }
            }
          }
        }
        JOINT RightShoulder
        {
          OFFSET -7.550562 1.41573 9.438202
          CHANNELS 3 Zrotation Yrotation Xrotation
          JOINT RightArm
          {
            OFFSET -9.155056 0 4.247191
            CHANNELS 3 Zrotation Yrotation Xrotation
            JOINT RightForearm
            {
              OFFSET 0 0 -25.771955
              CHANNELS 3 Zrotation Yrotation Xrotation
              JOINT RightHand
              {
                OFFSET 0 0 -25.197169
                CHANNELS 3 Zrotation Yrotation Xrotation
              }
            }
          }
        }
        JOINT Neck
        {
          OFFSET 0 0 15.101124
          CHANNELS 3 Zrotation Yrotation Xrotation
          JOINT Head
          {
            OFFSET 0 0 11.325843
            CHANNELS 3 Zrotation Yrotation Xrotation
            End Site
            {
              OFFSET 0 0 14.157303
            }
          }
        }
      }
    }
  }
}
MOTION
Frames: 17
Frame Time: 0.0
0.0  101.685394  0.0  -0.176116  7.107952  -119.592911  18.381205  -17.681251  6.435595  -24.709014  22.421372  30.35747  -9.303023  0.57532  -1.951875  -12.390386  0.112475  -122.494878  37.35395  -8.176417  109.836774  29.915567  -39.454214  5.757359  -7.484306  1.341545  2.362034  -20.330682  4.349404  5.980422  -20.330681  4.349404  5.980423  27.890645  34.01658  36.715927  145.327063  65.881196  -166.284465  -57.316452  -32.50654  105.946498  43.066815  -14.39174  4.268307  38.70216  -5.138198  48.444875  98.004117  52.400412  20.49893  -41.991388  23.700173  -93.309204  100.040685  -26.411377  85.702226  9.66964  -0.427384  0.416463  7.252492  -0.314042  0.319204  
0.0  101.685394  0.0  0.38729  6.402747  -119.094419  19.276735  -17.388805  5.935839  -24.126242  22.205907  30.699618  -9.738115  0.601174  -2.084638  -11.736834  -0.496686  -121.099471  38.001785  -7.660929  110.754312  31.786581  -37.954156  5.8335  -7.301665  1.403334  2.186771  -19.839872  4.448869  5.500857  -19.839873  4.448869  5.500857  27.387651  32.487258  35.805615  141.192106  66.795317  -170.130826  -58.065134  -34.75864  104.423933  40.85685  -16.5061  2.033156  38.267976  -5.663138  48.653225  97.695252  54.459881  21.292972  -43.010118  25.000512  -93.442347  99.101778  -26.837795  82.490464  9.127033  -0.726665  1.396314  6.846885  -0.524286  1.058355  
0.0  101.685394  0.0  0.660933  5.435719  -118.591026  19.946215  -17.309438  5.466792  -23.209266  21.892262  30.910512  -9.987995  0.623945  -2.13876  -10.801405  -2.049848  -119.003761  38.916585  -6.654988  111.728644  33.731155  -35.533671  6.339781  -7.007569  1.419196  2.08685  -19.04162  4.440336  5.247113  -19.041619  4.440336  5.247114  26.342707  31.092373  34.96327  137.583366  67.717636  -173.451239  -58.689387  -35.683523  103.10666  39.742946  -18.20772  0.668475  37.20494  -6.274908  48.434853  99.520487  56.137175  23.557469  -44.569807  24.884375  -93.672386  98.098656  -27.934  78.81925  8.226397  -1.083806  2.042202  6.173316  -0.785542  1.54653  
0.0  101.685394  0.0  0.79005  4.486998  -118.125987  20.298311  -17.259153  5.078272  -22.104091  21.588204  31.053903  -10.293505  0.625717  -2.209514  -9.829624  -3.772762  -116.541664  39.576085  -5.509996  113.18773  35.372327  -32.296194  7.088565  -6.763245  1.437937  1.967704  -18.380703  4.440097  4.936593  -18.380703  4.440096  4.936593  25.861917  29.922509  34.785195  135.478589  68.704548  -175.467029  -58.947804  -35.58593  102.160891  39.20424  -19.126359  0.441032  36.34399  -6.998513  48.209023  102.219583  56.892174  26.155121  -45.647751  24.728577  -93.458808  96.709183  -28.616561  76.062643  7.470187  -1.418089  2.610498  5.608532  -1.031862  1.975461  
0.0  101.685394  0.0  0.911494  3.60148  -117.660822  20.830744  -17.42379  4.64284  -21.253744  21.433647  31.129853  -10.695741  0.638754  -2.33919  -54.561411  12.380512  -140.808994  -7.653513  -35.190298  129.650719  36.824263  -28.505435  7.96723  -6.583508  1.45681  1.789482  -17.900633  4.430886  4.460855  -17.900634  4.430887  4.460855  26.016601  29.048192  35.35724  135.173458  69.910565  -175.928585  -59.096539  -35.270688  100.248089  38.084877  -19.7913  2.328633  35.797445  -7.590178  48.122837  104.197893  56.813946  27.795001  -45.512054  23.852218  -92.869968  96.048744  -28.899012  74.663466  6.89761  -1.642386  3.255598  5.181777  -1.195267  2.460443  
0.0  101.685394  0.0  1.145901  2.778179  -117.145714  21.091086  -17.268199  4.126164  -20.32082  21.32696  31.258052  -10.81569  0.63848  -2.441574  -53.743118  11.011754  -137.19712  -5.224155  -36.065999  130.336365  38.077278  -24.405112  9.206243  -6.45236  1.452674  1.588174  -17.555931  4.358482  3.924741  -17.555931  4.358481  3.924741  26.421622  28.56904  36.054749  136.065196  71.136202  -175.295381  -58.402286  -34.820013  99.171828  37.739949  -19.450462  3.424163  35.471552  -7.795541  48.079696  105.15547  56.633726  28.641952  -44.585713  21.627999  -92.595495  96.757066  -29.134665  73.889831  6.44763  -1.674453  3.823556  4.84608  -1.215718  2.885513  
0.0  101.685394  0.0  1.456532  2.011185  -116.443628  21.997534  -17.386031  3.558332  -20.249458  21.60519  30.822461  -10.557873  0.658523  -2.442922  -53.044269  9.601215  -133.575742  -2.455454  -36.578735  130.68332  38.943905  -20.03747  10.823723  -6.34703  1.427681  1.406238  -17.280826  4.237796  3.444439  -17.280825  4.237796  3.444439  26.599304  28.308088  36.248128  137.620864  72.082117  -174.000403  -58.010069  -34.171147  97.422603  37.043251  -19.239406  5.768048  35.256225  -7.696873  47.844235  105.702998  56.542511  29.370111  -43.390111  19.431208  -92.460883  97.555022  -29.857937  73.464456  6.029561  -1.627788  4.109312  4.533055  -1.180499  3.098197  
0.0  101.685394  0.0  1.877114  1.198869  -115.522752  22.739868  -17.04995  2.812662  -19.865692  21.720887  30.457155  -10.336302  0.640821  -2.447755  -52.50641  8.31125  -130.059994  0.29946  -36.626125  130.785519  39.522598  -15.416002  12.676611  -6.249158  1.41553  1.246434  -17.023818  4.159344  3.020087  -17.023818  4.159344  3.020087  26.548742  28.094585  35.846555  138.868973  72.690414  -173.069431  -57.417776  -33.548715  96.605004  36.268226  -18.858531  7.183035  35.158922  -7.53479  47.192101  106.162803  56.191957  30.078707  -42.578635  18.752797  -92.433791  97.354133  -31.557485  72.812903  5.644067  -1.643911  4.12275  4.24408  -1.195045  3.10735  
0.0  101.685394  0.0  2.349129  0.376613  -114.537114  23.724852  -16.773293  2.15748  -19.361109  21.739291  30.074639  -10.153362  0.615545  -2.465943  -52.39434  6.997864  -126.61249  3.177378  -36.683169  130.494623  39.885897  -10.793847  14.575519  -6.146246  1.42105  1.133826  -16.749341  4.14173  2.719582  -16.749341  4.14173  2.719582  26.18442  27.912012  34.995253  139.693362  72.983406  -172.576975  -57.18556  -32.701592  96.237328  35.674657  -18.522062  8.51579  35.117393  -7.302942  46.138317  106.961851  55.40625  30.883065  -42.627287  19.763081  -92.34147  96.106977  -33.422394  71.460311  5.247654  -1.740416  3.887311  3.946699  -1.272107  2.930463  
0.0  101.685394  0.0  2.805814  -0.471905  -113.550839  24.582021  -16.363313  1.624663  -18.564702  21.492927  29.737965  -10.288709  0.628544  -2.604956  -52.386028  5.656711  -122.950329  6.584385  -36.477485  129.56302  40.130165  -6.228243  16.40915  -6.008451  1.434417  1.057033  -16.376943  4.154007  2.516642  -16.376944  4.154007  2.516641  25.500988  27.695743  33.972309  140.004787  73.043973  -172.531929  -57.246897  -31.819075  96.239548  35.187925  -18.208701  9.587919  34.96733  -7.104986  44.909241  107.556169  54.662581  31.624631  -42.751024  21.246825  -92.272225  94.370033  -35.289792  69.580526  4.688865  -1.911153  3.519582  3.52747  -1.406517  2.654294  
0.0  101.685394  0.0  3.173187  -1.397634  -112.698979  25.489611  -16.114922  1.190107  -17.396045  21.085355  29.573771  -10.565868  0.657481  -2.779746  -52.286612  4.321832  -118.828535  10.457353  -35.913879  128.08612  40.046009  -1.572854  18.133225  -5.854495  1.456862  0.991229  -15.9595  4.193911  2.342464  -15.959501  4.193911  2.342463  24.369448  27.302133  32.986689  141.266514  72.798156  -171.769423  -57.464973  -31.077296  96.496911  34.702052  -17.78271  10.36469  34.575732  -6.995772  43.732845  108.622847  53.717268  32.573052  -43.005631  22.390401  -92.204555  92.765669  -37.287815  67.152497  4.421989  -2.08237  3.306825  3.327513  -1.538003  2.495073  
0.0  101.685394  0.0  3.473187  -2.250783  -111.734671  26.384646  -15.826391  0.58761  -16.134696  20.664686  29.477316  -11.03176  0.760139  -2.9422  -52.404054  2.837032  -114.640093  14.584351  -34.970405  126.339811  39.816737  3.251301  19.657214  -5.747627  1.463833  0.867578  -15.674901  4.180346  2.011623  -15.674901  4.180346  2.011623  24.006032  26.946533  32.447579  141.526418  72.487999  -171.636583  -57.781641  -30.601948  96.97427  34.266596  -17.19385  10.890984  34.546482  -6.92139  42.879796  109.358987  52.832369  33.179382  -43.177167  23.001523  -92.124191  91.563338  -39.265375  64.145123  3.91646  -2.24069  3.128103  2.948536  -1.660607  2.360259  
0.0  101.685394  0.0  3.616324  -3.427459  -111.112996  27.509096  -15.945733  0.064482  -15.255688  20.554028  29.204015  -11.052216  0.7648  -2.982349  -52.426068  1.625631  -110.085352  18.561433  -33.656938  124.506396  39.404049  8.144083  20.988108  -5.66657  1.454346  0.735891  -15.46151  4.121812  1.660965  -15.46151  4.121812  1.660965  24.322837  26.475268  32.29409  141.686937  71.876917  -171.43258  -58.151857  -30.421251  97.63295  33.816644  -16.539375  11.19503  34.912722  -7.006894  42.38583  109.95474  51.81028  33.589237  -42.932864  23.503923  -91.867637  90.280306  -40.856547  61.057871  3.765209  -2.318995  3.196232  2.835746  -1.719691  2.411248  
0.0  101.685394  0.0  3.840035  -4.184295  -110.080339  28.482313  -15.645638  -0.68445  -13.913315  20.213697  29.235223  -11.412752  0.772113  -3.073846  -52.955642  0.465416  -106.019507  22.180573  -32.022714  122.612838  38.55923  13.008662  21.979005  -5.626927  1.439182  0.524048  -15.366165  4.030812  1.090849  -15.366164  4.030812  1.090849  24.625553  26.000055  32.189848  141.507173  71.105535  -171.377244  -58.553462  -30.417039  98.393417  33.531829  -15.967117  11.241528  35.123976  -7.088739  41.989037  110.252551  50.707324  33.716187  -42.397221  24.040722  -91.519237  89.147452  -42.219129  57.841909  3.410374  -2.357408  3.232196  2.569978  -1.750145  2.437056  
0.0  101.685394  0.0  4.026261  -4.932551  -109.136862  29.442544  -15.390739  -1.372107  -14.347069  20.527379  28.181572  -9.75867  1.109403  -2.630173  -53.613579  -0.344908  -101.91543  25.430219  -30.030589  120.6158  37.242655  17.811432  22.55189  -5.589529  1.423633  0.307733  -15.276701  3.938354  0.508432  -15.276701  3.938354  0.508432  25.083355  25.482865  32.215326  141.052058  70.297595  -171.470697  -58.9816  -30.48751  99.211982  40.710776  -12.975703  4.124646  35.287357  -7.235738  41.664664  110.266916  49.473651  33.578115  -41.518891  24.503015  -91.163846  88.36773  -43.326937  54.798038  3.075548  -2.361175  3.304246  2.319186  -1.754369  2.489797  
0.0  101.685394  0.0  4.166923  -5.587237  -108.313001  30.268937  -15.212394  -1.927949  -13.300613  20.444093  28.144149  -9.47803  1.119865  -2.572588  -54.413007  -0.891211  -97.752471  28.559078  -27.649143  118.401971  35.629947  22.277022  22.483025  -5.546474  1.403217  0.119924  -15.169509  3.839798  0.0049  -15.169508  3.839798  0.004901  25.37337  25.043579  32.194165  140.540762  69.504628  -171.619431  -59.412364  -30.612521  100.086101  40.506151  -12.649056  3.96857  35.32414  -7.339717  41.274405  109.9724  48.11328  33.240043  -40.517005  24.838096  -91.006329  87.964023  -44.210639  52.085993  2.682553  -2.310892  3.333935  2.024325  -1.718638  2.510317  
0.0  101.685394  0.0  4.24608  -6.227963  -107.740897  30.860396  -15.219973  -2.262248  -12.062301  20.355784  28.255641  -9.64035  1.03252  -2.656769  -55.172576  -1.217592  -93.341086  31.568739  -24.876141  116.117494  33.721098  26.332981  21.595794  -5.494581  1.381856  0.002799  -15.033705  3.755397  -0.305793  -15.033705  3.755397  -0.305793  25.526171  24.681961  32.031147  140.097108  68.775826  -171.675327  -59.807139  -30.781862  100.959967  40.23791  -12.445266  3.817735  35.352855  -7.353349  40.687245  109.537585  46.606612  32.841863  -39.549591  25.110719  -91.13099  87.557405  -44.876735  50.196614  2.297559  -2.22995  3.267894  1.734939  -1.660263  2.459039  
